Love for All and Sharing is the first step to solving all the problems of humanity.

Website I want to share. 
               
   http://www.scenetime.com
 
 
  Credit to EVERYONE for sharing and seeding back
 especially to SCENETIME.COM where i get all my 
 downloads.


 support www.scenetime.com to grow faster.

 
 The world is ONE big family.	                                
                                                            
                                                   

.                 ..................................NFO:....................................[img]http://leetleech.org/images/86849391165753775808.jpg[/img]

[title]Hellhounds 2009 DVDRip XviD AC3-LEGi0N[/title][/center]

[info][b]
[color=red]General[/color]
Format: AVI
File size: 1.37 GiB
Duration: 1h 26mn
Overall bit rate: 2 250 Kbps
IMDb Rating: 3.6/10   129 votes
Genre: Adventure | Fantasy | Horror 
Release Date: 19 July 2009 (USA)
Source: NTSC SADPANDA  

[color=red]Video[/color]
ID                               : 0
Format                           : MPEG-4 Visual
Format profile                   : Unrestricted 
Format settings, BVOP            : Yes
Format settings, QPel            : No
Format settings, GMC             : No warppoints
Format settings, Matrix          : Default (H.263)
Muxing mode                      : Packed bitstream
Codec ID                         : XVID
Codec ID/Hint                    : XviD
Duration                         : 1h 26mn
Bit rate                         : 1 797 Kbps
Width                            : 720 pixels
Height                           : 400 pixels
Display aspect ratio             : 16:9
Frame rate                       : 23.976 fps
Color space                      : YUV
Chroma subsampling               : 4:2:0
Bit depth                        : 8 bits
Scan type                        : Progressive
Bits/(Pixel*Frame)               : 0.260
Stream size                      : 1.09 GiB (80%)
Writing library                  : XviD 1.2.1 (UTC 2008-12-04)

[color=red]Audio[/color]
ID                               : 1
Format                           : AC-3
Format/Info                      : Audio Coding 3
Mode extension                   : CM (complete main)
Codec ID                         : 2000
Duration                         : 1h 26mn
Bit rate mode                    : Constant
Bit rate                         : 448 Kbps
Channel(s)                       : 6 channels
Channel positions                : Front: L C R, Side: L R, LFE
Sampling rate                    : 48.0 KHz
Stream size                      : 279 MiB (20%)
Alignment                        : Aligned on interleaves
Interleave, duration             : 64 ms (1.53 video frames)
Interleave, preload duration     : 192 ms
Title                            : hellhounds T80 3_2ch 448Kbps DELAY 0ms

[url=http://www.imdb.com/title/tt1305800/][img]http://leetleech.org/images/47664146148439246089.png[/img][/url]

[plot]
A Greek warrior must travel to the Underworld and battle killer hellhounds in order
to rescue his murdered bride from the clutches of Hades.


[cast]

Scott Elrod	... 	Kleitos
Adam Butcher	... 	Nikandros
Amanda Brooks	... 	Demetria
James A. Woods	... 	Theron (as J.A. Woods)
Andrew Howard	... 	Andronikus
Olivia Nita	... 	Callia
Marius Chivu	... 	Cleon
Indra Ov	... 	The Seer (as Indra Ove)
Ana Popescu	... 	Farrah
Ben Cross	... 	King Leander
Oltin Hurezeanu	... 	Hades
Alain Goulem	... 	Hades (voice) (as Al Goulem)[/b]

[screens]
[center][img]http://leetleech.org/images/78919867554783973047.jpg[/img]
[img]http://leetleech.org/images/62209015655404624699.png[/img]
[img]http://leetleech.org/images/16798698812090177843.png[/img]
[img]http://leetleech.org/images/52274520853015093843.png[/img] [color=red][b]GREETZ[/b][/color]

Noir | bigimac | LUSi



kempas | KaN1vE | mike160 | skillz



FLAWL3SS | AND ALL P2P [/center]